<svg width="16" height="16" viewBox="0 0 16 16" fill="none" xmlns="http://www.w3.org/2000/svg">
<path d="M8 4.2449C7.25731 4.2449 6.5313 4.46513 5.91378 4.87775C5.29625 5.29036 4.81495 5.87683 4.53074 6.56298C4.24652 7.24914 4.17216 8.00417 4.31705 8.73258C4.46194 9.461 4.81958 10.1301 5.34474 10.6553C5.8699 11.1804 6.539 11.5381 7.26742 11.6829C7.99583 11.8278 8.75086 11.7535 9.43701 11.4693C10.1232 11.185 10.7096 10.7037 11.1223 10.0862C11.5349 9.4687 11.7551 8.74269 11.7551 8C11.7551 7.00409 11.3595 6.04896 10.6553 5.34474C9.95104 4.64052 8.99592 4.2449 8 4.2449ZM8 10.7755C7.45106 10.7755 6.91444 10.6127 6.45801 10.3078C6.00158 10.0028 5.64583 9.5693 5.43576 9.06214C5.22569 8.55498 5.17073 7.99692 5.27782 7.45852C5.38491 6.92013 5.64926 6.42558 6.03742 6.03742C6.42558 5.64926 6.92013 5.38491 7.45852 5.27782C7.99692 5.17073 8.55498 5.22569 9.06214 5.43576C9.5693 5.64583 10.0028 6.00158 10.3078 6.45801C10.6127 6.91444 10.7755 7.45106 10.7755 8C10.7734 8.73545 10.4802 9.44016 9.9602 9.9602C9.44016 10.4802 8.73545 10.7734 8 10.7755ZM11.5918 0H4.40816C3.23905 0 2.11781 0.46443 1.29112 1.29112C0.46443 2.11781 0 3.23905 0 4.40816V11.5918C0 12.761 0.46443 13.8822 1.29112 14.7089C2.11781 15.5356 3.23905 16 4.40816 16H11.5918C12.761 16 13.8822 15.5356 14.7089 14.7089C15.5356 13.8822 16 12.761 16 11.5918V4.40816C16 3.23905 15.5356 2.11781 14.7089 1.29112C13.8822 0.46443 12.761 0 11.5918 0ZM15.0204 11.5918C15.0204 12.5012 14.6592 13.3732 14.0162 14.0162C13.3732 14.6592 12.5012 15.0204 11.5918 15.0204H4.40816C3.49885 15.0204 2.62678 14.6592 1.9838 14.0162C1.34082 13.3732 0.979592 12.5012 0.979592 11.5918V4.40816C0.979592 3.49885 1.34082 2.62678 1.9838 1.9838C2.62678 1.34082 3.49885 0.979592 4.40816 0.979592H11.5918C12.5012 0.979592 13.3732 1.34082 14.0162 1.9838C14.6592 2.62678 15.0204 3.49885 15.0204 4.40816V11.5918ZM13.0612 3.7551C13.0612 3.91656 13.0133 4.07438 12.9236 4.20863C12.834 4.34287 12.7065 4.4475 12.5573 4.50929C12.4081 4.57107 12.244 4.58724 12.0856 4.55574C11.9273 4.52425 11.7818 4.4465 11.6677 4.33233C11.5535 4.21817 11.4758 4.07271 11.4443 3.91436C11.4128 3.75601 11.4289 3.59187 11.4907 3.44271C11.5525 3.29354 11.6571 3.16605 11.7914 3.07635C11.9256 2.98665 12.0834 2.93878 12.2449 2.93878C12.4614 2.93878 12.669 3.02478 12.8221 3.17787C12.9752 3.33096 13.0612 3.5386 13.0612 3.7551Z" fill="black"/>
</svg>
