<svg width="17" height="14" viewBox="0 0 17 14" fill="none" xmlns="http://www.w3.org/2000/svg">
<path d="M14.3281 0C15.5969 0 16.625 1.02812 16.625 2.29687V10.8281C16.625 12.0969 15.5969 13.125 14.3281 13.125H2.29688C1.68771 13.125 1.10349 12.883 0.672739 12.4523C0.241991 12.0215 0 11.4373 0 10.8281V2.29687C0 1.02812 1.02812 0 2.29688 0H14.3281ZM15.5312 4.09106L8.57587 7.91656C8.50431 7.95591 8.42484 7.97873 8.34331 7.98335C8.26177 7.98797 8.18024 7.97427 8.10469 7.94325L8.04913 7.917L1.09375 4.09062V10.8281C1.09375 11.1472 1.22051 11.4532 1.44614 11.6789C1.67177 11.9045 1.97779 12.0312 2.29688 12.0312H14.3281C14.6472 12.0312 14.9532 11.9045 15.1789 11.6789C15.4045 11.4532 15.5312 11.1472 15.5312 10.8281V4.09106ZM14.3281 1.09375H2.29688C1.97779 1.09375 1.67177 1.22051 1.44614 1.44614C1.22051 1.67177 1.09375 1.97779 1.09375 2.29687V2.84331L8.3125 6.81319L15.5312 2.84287V2.29687C15.5312 1.97779 15.4045 1.67177 15.1789 1.44614C14.9532 1.22051 14.6472 1.09375 14.3281 1.09375Z" fill="black"/>
</svg>
