<svg width="46" height="46" viewBox="0 0 46 46" fill="none" xmlns="http://www.w3.org/2000/svg">
<path d="M23.0002 39.7708C18.5523 39.7708 14.2865 38.0038 11.1414 34.8587C7.99625 31.7135 6.22933 27.4478 6.22933 22.9999C6.22933 18.552 7.99625 14.2863 11.1414 11.1411C14.2865 7.99601 18.5523 6.22909 23.0002 6.22909C27.4481 6.22909 31.7138 7.99601 34.8589 11.1411C38.0041 14.2863 39.771 18.552 39.771 22.9999C39.771 27.4478 38.0041 31.7135 34.8589 34.8587C31.7138 38.0038 27.4481 39.7708 23.0002 39.7708ZM23.0002 42.1666C28.0835 42.1666 32.9586 40.1472 36.553 36.5528C40.1475 32.9584 42.1668 28.0832 42.1668 22.9999C42.1668 17.9166 40.1475 13.0415 36.553 9.44704C32.9586 5.85259 28.0835 3.83325 23.0002 3.83325C17.9168 3.83325 13.0417 5.85259 9.44728 9.44704C5.85284 13.0415 3.8335 17.9166 3.8335 22.9999C3.8335 28.0832 5.85284 32.9584 9.44728 36.5528C13.0417 40.1472 17.9168 42.1666 23.0002 42.1666Z" fill="black"/>
<path d="M18.8583 15.9428C19.0543 15.8421 19.2743 15.7973 19.4941 15.8136C19.7139 15.8298 19.925 15.9063 20.1041 16.0348L28.4895 22.0244C28.6442 22.1355 28.7703 22.2818 28.8572 22.4513C28.9442 22.6208 28.9895 22.8085 28.9895 22.999C28.9895 23.1895 28.9442 23.3772 28.8572 23.5467C28.7703 23.7162 28.6442 23.8625 28.4895 23.9736L20.1041 29.9632C19.9252 30.0922 19.7142 30.1692 19.4943 30.1858C19.2744 30.2024 19.0542 30.1578 18.858 30.057C18.6619 29.9563 18.4974 29.8033 18.3828 29.6149C18.2681 29.4265 18.2078 29.2101 18.2085 28.9896V17.0104C18.2081 16.7899 18.2685 16.5735 18.3831 16.3852C18.4978 16.1968 18.6622 16.0437 18.8583 15.9428Z" fill="black"/>
</svg>
