<svg width="15" height="14" viewBox="0 0 15 14" fill="none" xmlns="http://www.w3.org/2000/svg">
<path d="M14.6139 0.242043C14.478 0.124322 14.3127 0.045776 14.1355 0.0148122C13.9584 -0.0161516 13.7762 0.00163279 13.6085 0.0662617L0.628767 5.16392C0.429613 5.24107 0.260954 5.38091 0.148241 5.56232C0.0355275 5.74374 -0.0151256 5.95689 0.00392459 6.16962C0.0229748 6.38234 0.110695 6.5831 0.253848 6.74161C0.397002 6.90011 0.587822 7.00775 0.797517 7.04829L4.20767 7.73032V11.9631C4.2079 12.1571 4.26542 12.3466 4.373 12.508C4.48058 12.6694 4.63343 12.7954 4.81236 12.8702C4.93301 12.9193 5.06178 12.9456 5.19205 12.9475C5.32144 12.9483 5.44967 12.9232 5.56922 12.8737C5.68876 12.8242 5.7972 12.7513 5.88814 12.6592L7.80767 10.7397L10.6764 13.2639C10.8541 13.4233 11.0846 13.511 11.3233 13.51C11.4261 13.5109 11.5284 13.4942 11.6256 13.4608C11.788 13.4092 11.9339 13.3157 12.0487 13.1898C12.1635 13.0639 12.2431 12.91 12.2795 12.7436L14.9303 1.20532C14.9699 1.03116 14.9614 0.849504 14.9057 0.679813C14.8499 0.510123 14.7491 0.358794 14.6139 0.242043ZM0.853767 6.09204C0.84885 6.0624 0.854639 6.03198 0.870097 6.00622C0.885556 5.98045 0.909675 5.96103 0.938142 5.95142L11.8014 1.68345L4.53111 6.93579L0.966267 6.21861C0.935194 6.21513 0.906506 6.20028 0.885733 6.17691C0.864961 6.15354 0.853574 6.12331 0.853767 6.09204ZM5.29049 12.0616C5.27099 12.082 5.24551 12.0957 5.21772 12.1008C5.18992 12.1059 5.16124 12.102 5.1358 12.0897C5.11108 12.0789 5.08998 12.0613 5.07502 12.0388C5.06006 12.0164 5.05187 11.9901 5.05142 11.9631V8.31392L7.16783 10.1842L5.29049 12.0616ZM11.4639 12.5538C11.4591 12.5781 11.4479 12.6008 11.4315 12.6195C11.4151 12.6381 11.394 12.6521 11.3704 12.66C11.3468 12.6678 11.3216 12.6693 11.2973 12.6642C11.2729 12.6592 11.2504 12.6477 11.2319 12.6311L5.30455 7.41392L14.0936 1.07173L11.4639 12.5538Z" fill="black"/>
</svg>
