<svg width="21" height="13" viewBox="0 0 21 13" fill="none" xmlns="http://www.w3.org/2000/svg">
<path d="M0 1.72013C0 1.01728 0.539526 0.739843 1.20356 0.702851L4.29545 0.721347C4.48221 0.721347 4.64822 0.832323 4.71047 0.998788C5.41601 3.03335 6.28755 4.29109 7.3251 5.71528C7.38735 5.82626 7.49111 5.88175 7.59486 5.88175C7.67787 5.88175 7.76087 5.84476 7.82312 5.75228L7.88538 5.54882L7.90613 2.349C7.90613 1.8866 7.65711 1.81261 7.07609 1.73863C6.84783 1.70164 6.70257 1.51668 6.70257 1.33172C6.70257 1.29472 6.70257 1.25773 6.72332 1.22074C7.01383 0.42541 7.92688 0.0184961 9.21344 0.0184961L10.3755 0C11.33 0 12.2016 0.369921 12.2016 1.46119V5.6598C12.2846 5.71528 12.3676 5.75228 12.4713 5.75228C12.6374 5.75228 12.8449 5.6598 13.0109 5.41935C14.0899 4.06913 15.3142 2.45998 15.4802 1.60916C15.4802 1.57217 15.501 1.55367 15.5217 1.51668C15.75 1.10976 16.331 0.832323 16.58 0.758339C16.6215 0.739843 16.6838 0.721347 16.7668 0.721347H19.9832L20.1907 0.739843C20.502 0.739843 20.7302 0.924803 20.834 1.09127C21.0208 1.35021 20.9792 1.62765 21 1.73863V1.8681C20.6887 3.55124 18.5306 5.43784 17.6176 6.65858C17.4931 6.80655 17.4308 6.93602 17.4308 7.0655C17.4308 7.17647 17.4931 7.28745 17.5968 7.39843L20.6265 10.8017C20.7925 11.0052 20.8755 11.2456 20.8755 11.4491C20.8755 12.0594 20.2322 12.4109 19.6097 12.4663L19.2569 12.4848H16.1028C16.0405 12.4848 15.999 12.5033 15.9368 12.5033C15.584 12.5033 15.2935 12.3369 15.086 12.1519C14.4219 11.4306 13.7787 10.6907 13.1354 9.96938C13.0109 9.82141 12.9694 9.80292 12.8449 9.72893C12.6996 10.2653 12.5751 10.8202 12.4298 11.3751L12.3676 11.6895C12.2638 12.0224 11.9941 12.3739 11.496 12.4663L11.2055 12.4848H9.17194C5.58202 12.4848 2.36561 7.93481 0.103755 2.25652C0.041502 2.10855 0 1.90509 0 1.72013ZM12.4713 6.51062C11.9318 6.51062 11.33 6.23317 11.33 5.71528V1.46119C11.33 0.961795 11.081 0.776835 10.3962 0.776835L9.21344 0.813827C8.54941 0.813827 8.17589 0.906307 7.86462 1.09127C8.3419 1.29472 8.77767 1.57217 8.77767 2.349V5.60431C8.71542 6.25167 8.11364 6.67708 7.53261 6.67708C7.13834 6.67708 6.78557 6.47362 6.57806 6.14069C5.64427 4.88296 4.85573 3.69921 4.17095 1.99758L3.98419 1.51668L1.22431 1.49818C0.850791 1.49818 0.892292 1.51668 0.892292 1.68314C0.892292 1.79412 0.913043 1.94209 0.933794 2.03457L1.36957 3.07035C3.63142 8.28624 6.47431 11.708 9.17194 11.708H11.247C11.5375 11.708 11.5168 11.3936 11.5791 11.2086L11.9733 9.58096C12.0563 9.4145 12.1186 9.26653 12.2638 9.13706C12.4298 8.98909 12.6166 8.9336 12.8034 8.9336C13.1976 8.9336 13.5711 9.21104 13.8202 9.46999L15.584 11.4676C15.7292 11.671 15.8538 11.708 15.9368 11.708H19.3607C19.6927 11.708 19.9832 11.6155 19.9832 11.4306C19.9832 11.3751 19.9625 11.3011 19.9209 11.2456L16.9121 7.89782C16.663 7.62038 16.5593 7.34294 16.5593 7.0655C16.5593 6.76956 16.6838 6.47362 16.8913 6.21468C17.7628 5.04943 19.6304 3.38478 20.0662 2.01607L20.1285 1.77562C20.1077 1.68314 20.1077 1.60916 20.087 1.51668H16.8291C16.6215 1.59066 16.4555 1.70164 16.331 1.84961L16.2065 2.20103C15.7292 3.38478 14.4219 5.01243 13.4881 6.14069C13.1769 6.39964 12.8241 6.51062 12.4713 6.51062Z" fill="black"/>
</svg>
