<svg xmlns="http://www.w3.org/2000/svg" xmlns:xlink="http://www.w3.org/1999/xlink"><symbol id="instagram"><g fill="none"><path d="M8 4.245a3.755 3.755 0 1 0 0 7.51 3.755 3.755 0 0 0 0-7.51Zm0 6.53A2.776 2.776 0 1 1 10.775 8 2.784 2.784 0 0 1 8 10.775ZM11.592 0H4.408A4.408 4.408 0 0 0 0 4.408v7.184A4.408 4.408 0 0 0 4.408 16h7.184A4.408 4.408 0 0 0 16 11.592V4.408A4.408 4.408 0 0 0 11.592 0Zm3.428 11.592a3.428 3.428 0 0 1-3.428 3.428H4.408A3.428 3.428 0 0 1 .98 11.592V4.408A3.429 3.429 0 0 1 4.408.98h7.184a3.429 3.429 0 0 1 3.428 3.428v7.184Zm-1.959-7.837a.816.816 0 1 1-1.633 0 .816.816 0 0 1 1.633 0Z" fill="#000"/></g></symbol><symbol id="mail"><g fill="none"><path d="M14.328 0a2.297 2.297 0 0 1 2.297 2.297v8.531a2.297 2.297 0 0 1-2.297 2.297H2.297A2.297 2.297 0 0 1 0 10.828V2.297A2.297 2.297 0 0 1 2.297 0h12.031Zm1.203 4.091L8.576 7.917a.547.547 0 0 1-.471.026l-.056-.026-6.955-3.826v6.737a1.203 1.203 0 0 0 1.203 1.203h12.031a1.203 1.203 0 0 0 1.203-1.203V4.091Zm-1.203-2.997H2.297a1.203 1.203 0 0 0-1.203 1.203v.546l7.218 3.97 7.22-3.97v-.546a1.203 1.203 0 0 0-1.204-1.203Z" fill="#000"/></g></symbol><symbol id="main-logo" viewBox="0 0 58 69"><path d="M3.5 1.2C.8 2.7 0 4 0 7c.1 3.2 1.6 5.2 6 7.9 4.6 2.7 7 2.9 4.6.2-1-1.1-1.6-3-1.4-4.3.8-6 10.5 1.5 16.5 12.9 1.6 2.9 3.2 5.3 3.6 5.3.4 0 1.6-1.9 2.7-4.3 4.4-10 13.1-18 16.2-14.9 1 1 .9 1.9-.4 4.2-2.1 3.7-.6 4 4.3.7 4.7-3.2 6.6-6.8 5.3-10.4-1.5-4.5-5.2-5.1-13.1-2.2-9 3.2-22.5 3.2-29.8 0-5.3-2.3-8-2.6-11-.9z"/><path d="M36 21.8c0 .5 2 3.4 4.4 6.6 5.6 7.2 7.8 12.8 7.4 19.1-.2 3.9-.7 5.1-2.1 5.3-2 .4-12.4-5.5-13.1-7.5-.3-.7.1-2.8.9-4.7 1.7-4 2-9.6.5-9.6-.5 0-1 .8-1 1.7-.1 1-.9 3.3-1.9 5.2l-1.8 3.4-1.6-2.4c-.9-1.3-1.9-3.6-2.2-5.2-.4-1.5-1.1-2.7-1.6-2.7-1.5 0-1 5.3 1 9.7l1.9 4.2-3.1 2.3c-8.7 6.4-11.1 7.1-12.1 3.5-1.7-6.3.9-15.4 6.4-22.8 2.2-2.9 3.7-5.5 3.5-5.8-.3-.3-2.8 1.7-5.6 4.5-5.5 5.3-9.3 11.9-10.4 17.7-.8 4 1.1 20 2.7 23.1.9 1.6 1.3 1.2 3.9-3.2 1.5-2.8 4.3-6 6.1-7.3 1.8-1.2 4.9-3.7 6.9-5.6l3.6-3.4 8.2 6.1c5.4 4.1 8.9 7.6 10.2 10.2 2.4 4.7 3.3 4.2 4.8-3 2.7-13.2.9-21.6-7-31.9-3.9-5-8.9-9.2-8.9-7.5z"/></symbol><symbol id="play-button"><g fill="none"><path d="M23 39.77A16.771 16.771 0 1 1 23 6.23a16.771 16.771 0 0 1 0 33.542Zm0 2.397a19.167 19.167 0 1 0 0-38.334 19.167 19.167 0 0 0 0 38.334Z" fill="#000"/><path d="M18.858 15.943a1.198 1.198 0 0 1 1.246.092l8.386 5.99a1.2 1.2 0 0 1 0 1.949l-8.386 5.99a1.196 1.196 0 0 1-1.895-.974V17.01a1.198 1.198 0 0 1 .65-1.067Z" fill="#000"/></g></symbol><symbol id="telegram"><g fill="none"><path d="M14.614.242a.991.991 0 0 0-1.006-.176L.628 5.164a.984.984 0 0 0 .17 1.884l3.41.682v4.233a.984.984 0 0 0 1.68.696l1.92-1.92 2.868 2.525a.963.963 0 0 0 .95.197.97.97 0 0 0 .654-.717l2.65-11.539a.985.985 0 0 0-.316-.963ZM.854 6.092a.127.127 0 0 1 .084-.14l10.863-4.269-7.27 5.253-3.565-.717a.127.127 0 0 1-.112-.127Zm4.436 5.97a.134.134 0 0 1-.154.028.14.14 0 0 1-.085-.127v-3.65l2.117 1.871-1.878 1.878Zm6.174.492a.141.141 0 0 1-.167.11.14.14 0 0 1-.065-.033L5.305 7.414l8.789-6.342-2.63 11.482Z" fill="#000"/></g></symbol><symbol id="vk"><g fill="none"><path d="M0 1.72C0 1.017.54.74 1.204.703L4.295.72c.187 0 .353.111.415.278.706 2.034 1.578 3.292 2.615 4.716a.31.31 0 0 0 .27.167.269.269 0 0 0 .228-.13l.062-.203.021-3.2c0-.462-.249-.536-.83-.61a.428.428 0 0 1-.373-.407c0-.037 0-.074.02-.111C7.013.425 7.927.018 9.213.018L10.376 0c.954 0 1.826.37 1.826 1.461V5.66a.469.469 0 0 0 .27.092c.165 0 .373-.092.539-.333 1.079-1.35 2.303-2.959 2.47-3.81 0-.037.02-.055.04-.092.229-.407.81-.685 1.059-.759a.457.457 0 0 1 .187-.037h3.216l.208.019c.311 0 .54.185.643.351.187.26.145.537.166.648v.13c-.311 1.682-2.47 3.569-3.382 4.79-.125.148-.187.277-.187.407 0 .11.062.221.166.332l3.03 3.404c.166.203.248.444.248.647 0 .61-.643.962-1.265 1.017l-.353.019h-3.154c-.063 0-.104.018-.166.018-.353 0-.643-.166-.851-.351-.664-.721-1.307-1.461-1.95-2.183-.125-.148-.167-.166-.291-.24-.145.536-.27 1.091-.415 1.646l-.062.315a1.105 1.105 0 0 1-.872.776l-.29.019H9.172c-3.59 0-6.806-4.55-9.068-10.228A1.471 1.471 0 0 1 0 1.72Zm12.471 4.79c-.54 0-1.141-.277-1.141-.795V1.461c0-.5-.249-.684-.934-.684L9.213.814c-.664 0-1.037.092-1.348.277.477.204.913.481.913 1.258v3.255c-.063.648-.664 1.073-1.245 1.073-.395 0-.747-.203-.955-.536-.934-1.258-1.722-2.442-2.407-4.143l-.187-.481-2.76-.019c-.373 0-.332.019-.332.185 0 .111.021.26.042.352L1.37 3.07c2.261 5.216 5.104 8.638 7.802 8.638h2.075c.29 0 .27-.314.332-.5l.394-1.627c.083-.166.146-.314.29-.444a.786.786 0 0 1 .54-.203c.395 0 .768.277 1.017.536l1.764 1.998c.145.203.27.24.353.24h3.424c.332 0 .622-.092.622-.277 0-.056-.02-.13-.062-.185l-3.009-3.348c-.249-.278-.353-.555-.353-.832 0-.296.125-.592.332-.851.872-1.166 2.74-2.83 3.175-4.199l.063-.24c-.021-.093-.021-.167-.042-.26h-3.258a1.13 1.13 0 0 0-.498.334l-.125.351c-.477 1.184-1.784 2.811-2.718 3.94-.311.259-.664.37-1.017.37Z" fill="#000"/></g></symbol></svg>