<svg xmlns="http://www.w3.org/2000/svg" xmlns:xlink="http://www.w3.org/1999/xlink"><symbol id="main-logo" viewBox="0 0 58 69"><path d="M3.5 1.2C.8 2.7 0 4 0 7c.1 3.2 1.6 5.2 6 7.9 4.6 2.7 7 2.9 4.6.2-1-1.1-1.6-3-1.4-4.3.8-6 10.5 1.5 16.5 12.9 1.6 2.9 3.2 5.3 3.6 5.3.4 0 1.6-1.9 2.7-4.3 4.4-10 13.1-18 16.2-14.9 1 1 .9 1.9-.4 4.2-2.1 3.7-.6 4 4.3.7 4.7-3.2 6.6-6.8 5.3-10.4-1.5-4.5-5.2-5.1-13.1-2.2-9 3.2-22.5 3.2-29.8 0-5.3-2.3-8-2.6-11-.9z"/><path d="M36 21.8c0 .5 2 3.4 4.4 6.6 5.6 7.2 7.8 12.8 7.4 19.1-.2 3.9-.7 5.1-2.1 5.3-2 .4-12.4-5.5-13.1-7.5-.3-.7.1-2.8.9-4.7 1.7-4 2-9.6.5-9.6-.5 0-1 .8-1 1.7-.1 1-.9 3.3-1.9 5.2l-1.8 3.4-1.6-2.4c-.9-1.3-1.9-3.6-2.2-5.2-.4-1.5-1.1-2.7-1.6-2.7-1.5 0-1 5.3 1 9.7l1.9 4.2-3.1 2.3c-8.7 6.4-11.1 7.1-12.1 3.5-1.7-6.3.9-15.4 6.4-22.8 2.2-2.9 3.7-5.5 3.5-5.8-.3-.3-2.8 1.7-5.6 4.5-5.5 5.3-9.3 11.9-10.4 17.7-.8 4 1.1 20 2.7 23.1.9 1.6 1.3 1.2 3.9-3.2 1.5-2.8 4.3-6 6.1-7.3 1.8-1.2 4.9-3.7 6.9-5.6l3.6-3.4 8.2 6.1c5.4 4.1 8.9 7.6 10.2 10.2 2.4 4.7 3.3 4.2 4.8-3 2.7-13.2.9-21.6-7-31.9-3.9-5-8.9-9.2-8.9-7.5z"/></symbol><symbol id="play-button"><g fill="none"><path d="M23 39.77A16.771 16.771 0 1 1 23 6.23a16.771 16.771 0 0 1 0 33.542Zm0 2.397a19.167 19.167 0 1 0 0-38.334 19.167 19.167 0 0 0 0 38.334Z" fill="#000"/><path d="M18.858 15.943a1.198 1.198 0 0 1 1.246.092l8.386 5.99a1.2 1.2 0 0 1 0 1.949l-8.386 5.99a1.196 1.196 0 0 1-1.895-.974V17.01a1.198 1.198 0 0 1 .65-1.067Z" fill="#000"/></g></symbol></svg>